# xmcd
#
# Track frame offsets:
#	150
#	18050
#	35250
#	56365
#	78392
#	88207
#	105248
#	129976
#	147653
#	164828
#	181764
#	202061
#	219521
#	237328
#	253183
#	264179
#	283111
#	303818
#	315382
#	326952
#	349772
#
# Disc length: 4671 seconds
#
# Revision: 0
# Processed by: cddbd v1.5.2PL0 Copyright (c) Steve Scherf et al.
# Submitted via: audiograbber 1.83.01
#
DISCID=2b123d15
DTITLE=Various Artist - Top Tunes Tt-235
DYEAR=1900
DGENRE=COUNTRY CD+G
TTITLE0=Crowell, Rodney - Fates Right Hand
TTITLE1=Crow, Sheryl - First Cut Is The Deepest, The
TTITLE2=Judd, Wynonna - Flies On The Butter (You Can't Go Home)
TTITLE3=Evans, Sara - I Give In
TTITLE4=Presley, Elvis - I'm Just A Roustabout
TTITLE5=Tippin, Aaron and Thea - Love Like There's No Tomorrow
TTITLE6=Evans, Sara - Niagra
TTITLE7=Loveless, Patty - On Your Way Home
TTITLE8=Lawrence, Tracy - Paint Me A Birmingham
TTITLE9=Cash, Roseanne and John - September When It Comes
TTITLE10=Allan, Gary - Songs About Rain
TTITLE11=Black, Clint - Spend My Time
TTITLE12=Evans, Sara - Suds In The Bucket
TTITLE13=Jewell, Buddy - Sweet Southern Comfort
TTITLE14=Bowser and Blue - Colorectal Surgeon's Song, The
TTITLE15=Chesney, Kenny - There Goes My Life
TTITLE16=McGraw, Tim - Watch The Wind Blow By
TTITLE17=Bowser and Blue - When Lawyers Take Viagra
TTITLE18=Nelson, Willie and Norah Jones - Wurlitzer Prize (Norah Lead)
TTITLE19=Nelson, Willie and Norah Jones - Wurlitzer Prize (Willie Lead)
TTITLE20=Data - Data Track
EXTD=
EXTT0=
EXTT1=
EXTT2=
EXTT3=
EXTT4=
EXTT5=
EXTT6=
EXTT7=
EXTT8=
EXTT9=
EXTT10=
EXTT11=
EXTT12=
EXTT13=
EXTT14=
EXTT15=
EXTT16=
EXTT17=
EXTT18=
EXTT19=
EXTT20=
PLAYORDER=
